<svg viewBox="0 0 1000 800" xmlns="http://www.w3.org/2000/svg">
  <!-- Main diagram frame -->
  <rect x="10" y="10" width="980" height="780" fill="none" stroke="#000" stroke-width="2"/>
  <text x="20" y="30" font-family="Arial" font-size="14" font-weight="bold">ibd [block] Smart Home System</text>
  
  <!-- Parts -->
  <!-- HVAC Controller -->
  <rect x="50" y="80" width="200" height="150" fill="#F8F8F8" stroke="#000" stroke-width="1.5"/>
  <line x1="50" y1="110" x2="250" y2="110" stroke="#000" stroke-width="1"/>
  <text x="60" y="100" font-family="Arial" font-size="12" font-weight="bold">hvac : HVAC Controller</text>
  <text x="60" y="130" font-family="Arial" font-size="12">temp : Temperature [°C]</text>
  <text x="60" y="150" font-family="Arial" font-size="12">mode : OperationMode</text>
  
  <!-- Security System -->
  <rect x="50" y="280" width="200" height="150" fill="#F8F8F8" stroke="#000" stroke-width="1.5"/>
  <line x1="50" y1="310" x2="250" y2="310" stroke="#000" stroke-width="1"/>
  <text x="60" y="300" font-family="Arial" font-size="12" font-weight="bold">security : Security System</text>
  <text x="60" y="330" font-family="Arial" font-size="12">armed : Boolean</text>
  <text x="60" y="350" font-family="Arial" font-size="12">alarmActive : Boolean</text>
  
  <!-- Lighting Control -->
  <rect x="50" y="480" width="200" height="150" fill="#F8F8F8" stroke="#000" stroke-width="1.5"/>
  <line x1="50" y1="510" x2="250" y2="510" stroke="#000" stroke-width="1"/>
  <text x="60" y="500" font-family="Arial" font-size="12" font-weight="bold">lighting : Lighting Control</text>
  <text x="60" y="530" font-family="Arial" font-size="12">brightness : Integer [%]</text>
  <text x="60" y="550" font-family="Arial" font-size="12">color : RGB</text>
  
  <!-- Power Management -->
  <rect x="350" y="480" width="200" height="150" fill="#F8F8F8" stroke="#000" stroke-width="1.5"/>
  <line x1="350" y1="510" x2="550" y2="510" stroke="#000" stroke-width="1"/>
  <text x="360" y="500" font-family="Arial" font-size="12" font-weight="bold">powerMgr : Power Management</text>
  <text x="360" y="530" font-family="Arial" font-size="12">consumption : Real [kW]</text>
  <text x="360" y="550" font-family="Arial" font-size="12">solarOutput : Real [kW]</text>
  
  <!-- User Interface -->
  <rect x="650" y="280" width="200" height="150" fill="#F8F8F8" stroke="#000" stroke-width="1.5"/>
  <line x1="650" y1="310" x2="850" y2="310" stroke="#000" stroke-width="1"/>
  <text x="660" y="300" font-family="Arial" font-size="12" font-weight="bold">userInterface : UI</text>
  <text x="660" y="330" font-family="Arial" font-size="12">screenActive : Boolean</text>
  
  <!-- Constraint Block -->
  <rect x="350" y="80" width="200" height="150" rx="20" ry="20" fill="#F0F0FF" stroke="#000" stroke-width="1.5" stroke-dasharray="5,3"/>
  <line x1="350" y1="110" x2="550" y2="110" stroke="#000" stroke-width="1" stroke-dasharray="5,3"/>
  <text x="360" y="100" font-family="Arial" font-size="12" font-weight="bold">«constraint»</text>
  <text x="360" y="120" font-family="Arial" font-size="12" font-weight="bold">energyBalance : Energy Equation</text>
  <text x="360" y="140" font-family="Arial" font-size="11" font-style="italic">{totalConsumption = </text>
  <text x="370" y="155" font-family="Arial" font-size="11" font-style="italic">hvacPower + lightingPower +</text>
  <text x="370" y="170" font-family="Arial" font-size="11" font-style="italic">securityPower - solarOutput}</text>
  
  <!-- Reference Property -->
  <rect x="650" y="80" width="200" height="150" fill="#F8F8F8" stroke="#000" stroke-width="1.5" stroke-dasharray="3,3"/>
  <line x1="650" y1="110" x2="850" y2="110" stroke="#000" stroke-width="1" stroke-dasharray="3,3"/>
  <text x="660" y="100" font-family="Arial" font-size="12" font-weight="bold">«reference»</text>
  <text x="660" y="120" font-family="Arial" font-size="12" font-weight="bold">weather : Weather Service</text>
  <text x="660" y="140" font-family="Arial" font-size="12">forecast : String</text>
  <text x="660" y="160" font-family="Arial" font-size="12">temperature : Real [°C]</text>
  
  <!-- Value Property -->
  <rect x="650" y="480" width="200" height="80" fill="#F0FFF0" stroke="#000" stroke-width="1.5"/>
  <line x1="650" y1="510" x2="850" y2="510" stroke="#000" stroke-width="1"/>
  <text x="660" y="500" font-family="Arial" font-size="12" font-weight="bold">«value property»</text>
  <text x="660" y="520" font-family="Arial" font-size="12" font-weight="bold">systemName : String</text>
  <text x="660" y="540" font-family="Arial" font-size="12">"Smart Home v2.1"</text>
  
  <!-- Ports -->
  <!-- WiFi Port on Security System -->
  <rect x="50" y="355" width="12" height="12" fill="#D0D0D0" stroke="#000" stroke-width="1.5"/>
  <text x="35" y="375" font-family="Arial" font-size="10">p1: WiFi</text>
  
  <!-- ZigBee Port on Lighting Control -->
  <rect x="50" y="555" width="12" height="12" fill="#D0D0D0" stroke="#000" stroke-width="1.5"/>
  <text x="25" y="575" font-family="Arial" font-size="10">p2: ZigBee</text>
  
  <!-- HomeKit Port on UI -->
  <rect x="650" y="355" width="12" height="12" fill="#D0D0D0" stroke="#000" stroke-width="1.5"/>
  <text x="620" y="375" font-family="Arial" font-size="10">p3: HomeKit</text>
  
  <!-- Power Port on Power Management -->
  <rect x="350" y="555" width="12" height="12" fill="white" stroke="#000" stroke-width="1.5"/>
  <line x1="350" y1="561" x2="362" y2="561" stroke="#000" stroke-width="1"/>
  <text x="320" y="575" font-family="Arial" font-size="10">p4: Power</text>
  
  <!-- Flow Property -->
  <rect x="850" y="555" width="12" height="12" fill="white" stroke="#000" stroke-width="1.5"/>
  <line x1="850" y1="561" x2="862" y2="561" stroke="#000" stroke-width="1"/>
  <text x="865" y="560" font-family="Arial" font-size="10">«flow property»</text>
  <text x="865" y="575" font-family="Arial" font-size="10">energy : Electricity</text>
  <text x="865" y="590" font-family="Arial" font-size="10">direction: in</text>
  <text x="865" y="605" font-family="Arial" font-size="10">voltage: 120V</text>
  
  <!-- Connectors -->
  <!-- HVAC to Security -->
  <line x1="150" y1="230" x2="150" y2="280" stroke="#000" stroke-width="1.5"/>
  <text x="160" y="255" font-family="Arial" font-size="10">«connector» statusData</text>
  
  <!-- HVAC to UI -->
  <line x1="250" y1="155" x2="650" y2="330" stroke="#000" stroke-width="1.5"/>
  <text x="400" y="210" font-family="Arial" font-size="10">«connector» controlSignal</text>
  
  <!-- Security to UI -->
  <line x1="250" y1="355" x2="650" y2="355" stroke="#000" stroke-width="1.5"/>
  <text x="400" y="340" font-family="Arial" font-size="10">«connector» alarmSignal</text>
  
  <!-- Lighting to UI -->
  <line x1="250" y1="530" x2="650" y2="400" stroke="#000" stroke-width="1.5"/>
  <text x="400" y="450" font-family="Arial" font-size="10">«connector» controlSignal</text>
  
  <!-- Item Flows -->
  <!-- Power Management to HVAC -->
  <line x1="450" y1="480" x2="200" y2="230" stroke="#000" stroke-width="1.5" marker-end="url(#arrow)"/>
  <text x="300" y="330" font-family="Arial" font-size="10">«item flow» electricPower : Electricity</text>
  
  <!-- Power Management to Lighting -->
  <line x1="350" y1="555" x2="250" y2="555" stroke="#000" stroke-width="1.5" marker-end="url(#arrow)"/>
  <text x="270" y="580" font-family="Arial" font-size="10">«item flow»</text>
  
  <!-- Power Management to Security -->
  <line x1="400" y1="480" x2="200" y2="430" stroke="#000" stroke-width="1.5" marker-end="url(#arrow)"/>
  <text x="250" y="460" font-family="Arial" font-size="10">«item flow»</text>
  
  <!-- Binding Connectors -->
  <!-- Energy Balance to Power Management -->
  <line x1="450" y1="230" x2="450" y2="480" stroke="#000" stroke-width="1.5" stroke-dasharray="6,3"/>
  <text x="460" y="350" font-family="Arial" font-size="10">«binding» consumption = totalConsumption</text>
  
  <!-- Energy Balance to HVAC -->
  <line x1="350" y1="155" x2="250" y2="155" stroke="#000" stroke-width="1.5" stroke-dasharray="6,3"/>
  <text x="270" y="140" font-family="Arial" font-size="10">«binding» hvacPower</text>
  
  <!-- Energy Balance to Lighting -->
  <path d="M 400 230 L 400 400 L 200 400 L 200 480" fill="none" stroke="#000" stroke-width="1.5" stroke-dasharray="6,3"/>
  <text x="240" y="420" font-family="Arial" font-size="10">«binding» lightingPower</text>
  
  <!-- Energy Balance to Security -->
  <path d="M 500 230 L 500 355 L 250 355" fill="none" stroke="#000" stroke-width="1.5" stroke-dasharray="6,3"/>
  <text x="280" y="380" font-family="Arial" font-size="10">«binding» securityPower</text>
  
  <!-- External Reference Connection -->
  <line x1="250" y1="100" x2="650" y2="100" stroke="#000" stroke-width="1.5" stroke-dasharray="3,3"/>
  <text x="400" y="85" font-family="Arial" font-size="10">«connector» weatherData</text>
  
  <!-- Define arrowhead marker -->
  <defs>
    <marker id="arrow" viewBox="0 0 10 10" refX="5" refY="5"
        markerWidth="6" markerHeight="6" orient="auto">
      <path d="M 0 0 L 10 5 L 0 10 z" fill="#000"/>
    </marker>
  </defs>
</svg>
